<svg xmlns="http://www.w3.org/2000/svg" xmlns:xlink="http://www.w3.org/1999/xlink" viewBox="0 0 650.74 582.33"><defs><style>.cls-1{fill:url(#Degradado_sin_nombre_5);}.cls-2{fill:url(#Degradado_sin_nombre_5-2);}</style><linearGradient id="Degradado_sin_nombre_5" x1="161.44" y1="579.53" x2="486.17" y2="15.86" gradientUnits="userSpaceOnUse"><stop offset="0.01" stop-color="#ed9a1c"/><stop offset="1" stop-color="#e9b214"/></linearGradient><linearGradient id="Degradado_sin_nombre_5-2" x1="276.45" y1="378.53" x2="379.47" y2="196.16" xlink:href="#Degradado_sin_nombre_5"/></defs><title>Recurso 1</title><g id="Capa_2" data-name="Capa 2"><g id="Capa_1-2" data-name="Capa 1"><path class="cls-1" d="M215.51,223.09c7.42-13,15-26,22.14-39.17a8.65,8.65,0,0,0,.11-7.06C227.33,157.33,216.53,138,206,118.54c-1.87-3.45-4-4.78-8.16-4.68A56.93,56.93,0,1,1,241.6,21.8c14.24,18,16.7,43.2,4.74,62.74-4.37,7.14-3.15,11.78.64,18.22,10.31,17.49,19.75,35.49,29.81,53.13a8.09,8.09,0,0,0,5.89,3.51q44.7.12,89.39-.44c1.91,0,4.57-1.79,5.58-3.51,10.84-18.56,21.32-37.33,32.15-55.9,2-3.5,1.92-5.9-.27-9.31-21.9-34-1.65-79.89,38.29-86.4C471.16,0,490.48,8,504.07,27.15c13.1,18.47,14.58,38.82,3.92,59-11,20.89-29.05,31-52.66,30.52-3.71-.07-5.56,1-7.33,4.16-10.4,18.63-21.16,37.05-31.44,55.73a10,10,0,0,0,0,8.32q22.68,39.66,46.09,78.92a8.41,8.41,0,0,0,6.12,3.52q34.2-.18,68.41-1.12c1.68-.05,4-1.92,4.86-3.56,14.75-29.36,50.15-41,78.25-25.63,29.21,16,39.31,52,22,79.89-11.65,18.79-29.11,28.19-51.17,27.29-21.72-.89-37.52-12-48.19-30.81a7.57,7.57,0,0,0-5.64-3.16q-35.19.36-70.37,1.39a7.45,7.45,0,0,0-5.28,3.25q-21.88,37.88-43.26,76a7.64,7.64,0,0,0,.23,6.52q19.31,30.63,39.2,60.88c1.24,1.87,4.71,3.42,7,3.26,42.21-2.94,72.46,35.81,59.05,75.92-8.44,25.24-35.18,41.43-61.89,37.46-27.11-4-47.83-27.06-48.76-54-.4-11.31,2.52-21.68,7.77-31.61.91-1.73,1-4.91,0-6.5Q401.63,452.21,381.71,422a9.32,9.32,0,0,0-6.67-3.6q-46.92-.06-93.85.55a7.4,7.4,0,0,0-5.33,3.18c-12.62,21.57-25.14,43.21-37.24,65.08-1.11,2,.11,6.17,1.53,8.58,12,20.43,10.7,45.93-3.63,64.38a57,57,0,0,1-101.46-43.89,56.32,56.32,0,0,1,57.67-47.75c4.17.1,6.6-1,8.69-4.67,12-21.35,24.33-42.52,36.31-63.89a7.83,7.83,0,0,0,0-6.61q-23-40.05-46.56-79.78a7.49,7.49,0,0,0-5.34-3.13c-24.29-.64-48.6-1.13-72.9-1.23-2.09,0-5,2.65-6.19,4.8-13.12,22.67-38.47,33.49-64.16,27.09C18.1,335,.57,312.71,0,287a56.93,56.93,0,0,1,107.9-26.42c1.78,3.62,3.79,4.54,7.53,4.58,23.47.26,46.94.9,70.4,1a9.9,9.9,0,0,0,7.22-4.09C200.82,249.25,208.08,236.12,215.51,223.09Zm22.74,213.49-.06,0q-10,17.59-20.06,35.17c-1.31,2.28-2.91,4.76.94,5.65,1.42.32,4.11-1,4.89-2.33,13.22-22.76,26-45.76,39.53-68.35,1.88-3.13,7-6.07,10.65-6.14,35.6-.64,71.21-.52,106.81-1,6.29-.08,10.17,2.17,13.45,7.36,13.34,21.1,27,42,40.47,63,1.38,2.14,2.71,4.94,5.35,1.8a5.85,5.85,0,0,0,.31-5.41q-20.47-32.24-41.38-64.19c-3.44-5.25-3.55-9.76-.39-15.23q24.63-42.62,48.72-85.56c3.35-6,7.52-8.44,14.32-8.45,24.13-.05,48.25-.57,72.37-.85,2.85,0,5.36-.52,4.16-4A5.72,5.72,0,0,0,534.1,285c-24.29.26-48.57,1-72.86,1-3.55,0-8.61-2.7-10.41-5.69-18.34-30.53-36.08-61.42-54.2-92.08-3-5.09-2.95-9.3,0-14.36C408,154.36,419,134.78,430,115.17c1.19-2.12,4.9-4.57.07-7.22-4.55-2.51-4.69,1.72-5.82,3.68C413.12,131,402,150.32,391.14,169.82c-3,5.38-6.72,7.89-13.1,7.88q-50.93-.06-101.86.58c-6.15.07-9.83-2.22-12.71-7.54C251.88,149.39,240,128.19,228.19,107c-.56-1-1.88-2.49-2.56-2.35-1.53.32-4.12,1.62-4.07,2.33a16.48,16.48,0,0,0,2.27,6.38c11.17,20.24,22.35,40.48,33.73,60.61,2.61,4.61,2.42,8.49-.19,13q-26.06,45.27-51.69,90.77c-3.12,5.57-7,7.56-13.27,7.39-24.95-.68-49.91-1-74.87-1.25-1.73,0-4.65,1.46-5,2.77-1.23,4.71,2.66,3.75,5.27,3.8,24.95.5,49.92.73,74.86,1.66,3.65.13,8.75,2.57,10.53,5.53q27.65,46,54.15,92.68c1.75,3.08,1.8,8.64.2,11.84C251.67,413.9,244.77,425.15,238.25,436.58ZM216,23.73a38.18,38.18,0,0,0-52.39,14.08c-10.67,18.37-4.23,41.66,13.76,52.64,19.26,11.76,43.14.51,52.78-14.39C241.44,58.58,234.31,34.24,216,23.73ZM209.7,493.47C189.62,482,168.82,487.21,158,506.34a38,38,0,0,0,14.4,52.28,38.4,38.4,0,0,0,52.22-13.86C235.5,526,229.3,504.64,209.7,493.47ZM575,320.85c17.82,10.51,40.94,4.08,51.82-14.41,10.65-18.1,4.33-41.92-14-52.56-17.88-10.41-42.08-4.41-52.2,13.72C552.49,282.32,554.08,311.14,575,320.85ZM450.81,551.64A38.6,38.6,0,0,0,503.43,538c10.75-18.07,4.42-42.55-14.09-52.92-20.66-11.57-39.5-3.07-52,14.35C425,516.61,432.42,540.87,450.81,551.64ZM37.89,319.43c18.18,10.41,43.33,4.38,52.28-14.37a46.9,46.9,0,0,0,3.81-12c2.64-14.93-1.82-31.6-17.62-40.34-18.9-10.44-42.28-4.4-52.88,14.19C13.12,285.09,19.68,309,37.89,319.43ZM439.26,91.6c20,11.37,41,6.27,51.8-12.57a38.47,38.47,0,1,0-66.89-38C413.42,59.72,419.59,80.38,439.26,91.6Z"/><path class="cls-2" d="M408,335.33c-7.59,13.32-15.29,26.57-22.71,40-2.66,4.79-6.25,6.75-11.69,6.76q-45.19.06-90.37.57c-6.76.08-11.11-2.29-14.52-8.24C253.67,348.14,238.32,322,222.93,296c-2.58-4.36-2.65-8.21-.12-12.6,15.51-27,30.73-54.21,46.54-81,1.81-3.07,6.64-6.09,10.13-6.16q47.17-.94,94.38-.51c3.39,0,8.12,2.89,9.9,5.84,16.08,26.65,31.59,53.65,47.4,80.46,2.69,4.56,2.57,8.5-.1,13-7.84,13.35-15.4,26.88-23.07,40.33Zm-16-9.44h0c6.35-11.15,12.88-22.2,18.89-33.52a9.55,9.55,0,0,0,0-7.85q-19.32-33.81-39.33-67.22a7.82,7.82,0,0,0-5.72-3.22q-39.19-.09-78.39.49a8.5,8.5,0,0,0-6.08,3.67c-12.9,22.17-25.64,44.44-38,66.89-1.25,2.26-1.1,6.49.2,8.79q19,33.42,38.74,66.39a8.4,8.4,0,0,0,6.05,3.57q38.94.09,77.88-.57c2.3,0,5.44-2.06,6.67-4.08C379.54,348.27,385.72,337,392.07,325.89Z"/></g></g></svg>